<svg width="472" height="163" viewBox="0 0 472 163" fill="none" xmlns="http://www.w3.org/2000/svg">
<g clip-path="url(#clip0_9_151)">
<path d="M138.196 50.7143C140.288 50.7143 142 49.0027 142 46.9107V34.2321C142 32.1402 140.288 30.4286 138.196 30.4286H131.857V15.2143C131.857 6.81473 125.042 0 116.643 0H15.2143C6.81473 0 0 6.81473 0 15.2143V147.071C0 155.471 6.81473 162.286 15.2143 162.286H116.643C125.042 162.286 131.857 155.471 131.857 147.071V131.857H138.196C140.288 131.857 142 130.146 142 128.054V115.375C142 113.283 140.288 111.571 138.196 111.571H131.857V91.2857H138.196C140.288 91.2857 142 89.5741 142 87.4821V74.8036C142 72.7116 140.288 71 138.196 71H131.857V50.7143H138.196ZM65.9286 40.5714C77.1174 40.5714 86.2143 49.6683 86.2143 60.8571C86.2143 72.046 77.1174 81.1429 65.9286 81.1429C54.7397 81.1429 45.6429 72.046 45.6429 60.8571C45.6429 49.6683 54.7397 40.5714 65.9286 40.5714ZM101.429 115.629C101.429 118.988 98.2589 121.714 94.3286 121.714H37.5286C33.5982 121.714 30.4286 118.988 30.4286 115.629V109.543C30.4286 99.4634 39.9692 91.2857 51.7286 91.2857H53.3134C57.2121 92.9022 61.4594 93.8214 65.9286 93.8214C70.3978 93.8214 74.6768 92.9022 78.5438 91.2857H80.1286C91.888 91.2857 101.429 99.4634 101.429 109.543V115.629Z" fill="white"/>
<path d="M217.114 35.8929H207.159C206.977 34.605 206.606 33.4611 206.045 32.4611C205.485 31.4459 204.765 30.5823 203.886 29.8702C203.008 29.158 201.992 28.6126 200.841 28.2338C199.705 27.855 198.47 27.6656 197.136 27.6656C194.727 27.6656 192.629 28.2641 190.841 29.4611C189.053 30.6429 187.667 32.3702 186.682 34.6429C185.697 36.9005 185.205 39.6429 185.205 42.8702C185.205 46.1883 185.697 48.9762 186.682 51.2338C187.682 53.4914 189.076 55.1959 190.864 56.3474C192.652 57.4989 194.72 58.0747 197.068 58.0747C198.386 58.0747 199.606 57.9005 200.727 57.552C201.864 57.2035 202.871 56.6959 203.75 56.0292C204.629 55.3474 205.356 54.5217 205.932 53.552C206.523 52.5823 206.932 51.4762 207.159 50.2338L217.114 50.2792C216.856 52.4156 216.212 54.4762 215.182 56.4611C214.167 58.4308 212.795 60.1959 211.068 61.7565C209.356 63.302 207.311 64.5292 204.932 65.4383C202.568 66.3323 199.894 66.7792 196.909 66.7792C192.758 66.7792 189.045 65.8399 185.773 63.9611C182.515 62.0823 179.939 59.3626 178.045 55.802C176.167 52.2414 175.227 47.9308 175.227 42.8702C175.227 37.7944 176.182 33.4762 178.091 29.9156C180 26.355 182.591 23.6429 185.864 21.7792C189.136 19.9005 192.818 18.9611 196.909 18.9611C199.606 18.9611 202.106 19.3399 204.409 20.0974C206.727 20.855 208.78 21.9611 210.568 23.4156C212.356 24.855 213.811 26.6202 214.932 28.7111C216.068 30.802 216.795 33.1959 217.114 35.8929ZM239.761 66.8247C236.231 66.8247 233.178 66.0747 230.602 64.5747C228.042 63.0595 226.064 60.9535 224.67 58.2565C223.277 55.5444 222.58 52.4005 222.58 48.8247C222.58 45.2186 223.277 42.0671 224.67 39.3702C226.064 36.658 228.042 34.552 230.602 33.052C233.178 31.5368 236.231 30.7792 239.761 30.7792C243.292 30.7792 246.337 31.5368 248.898 33.052C251.473 34.552 253.458 36.658 254.852 39.3702C256.246 42.0671 256.943 45.2186 256.943 48.8247C256.943 52.4005 256.246 55.5444 254.852 58.2565C253.458 60.9535 251.473 63.0595 248.898 64.5747C246.337 66.0747 243.292 66.8247 239.761 66.8247ZM239.807 59.3247C241.413 59.3247 242.754 58.8702 243.83 57.9611C244.905 57.0368 245.716 55.7792 246.261 54.1883C246.822 52.5974 247.102 50.7868 247.102 48.7565C247.102 46.7262 246.822 44.9156 246.261 43.3247C245.716 41.7338 244.905 40.4762 243.83 39.552C242.754 38.6277 241.413 38.1656 239.807 38.1656C238.186 38.1656 236.822 38.6277 235.716 39.552C234.625 40.4762 233.799 41.7338 233.239 43.3247C232.693 44.9156 232.42 46.7262 232.42 48.7565C232.42 50.7868 232.693 52.5974 233.239 54.1883C233.799 55.7792 234.625 57.0368 235.716 57.9611C236.822 58.8702 238.186 59.3247 239.807 59.3247ZM272.92 45.9611V66.1429H263.239V31.2338H272.466V37.3929H272.875C273.648 35.3626 274.943 33.7565 276.761 32.5747C278.58 31.3777 280.784 30.7792 283.375 30.7792C285.799 30.7792 287.913 31.3095 289.716 32.3702C291.519 33.4308 292.92 34.9459 293.92 36.9156C294.92 38.8702 295.42 41.2035 295.42 43.9156V66.1429H285.739V45.6429C285.754 43.5065 285.208 41.8399 284.102 40.6429C282.996 39.4308 281.473 38.8247 279.534 38.8247C278.231 38.8247 277.08 39.105 276.08 39.6656C275.095 40.2262 274.322 41.0444 273.761 42.1202C273.216 43.1808 272.936 44.4611 272.92 45.9611ZM321.619 31.2338V38.5065H300.597V31.2338H321.619ZM305.369 22.8702H315.051V55.4156C315.051 56.3095 315.188 57.0065 315.46 57.5065C315.733 57.9914 316.112 58.3323 316.597 58.5292C317.097 58.7262 317.672 58.8247 318.324 58.8247C318.778 58.8247 319.233 58.7868 319.688 58.7111C320.142 58.6202 320.491 58.552 320.733 58.5065L322.256 65.7111C321.771 65.8626 321.089 66.0368 320.21 66.2338C319.331 66.4459 318.263 66.5747 317.006 66.6202C314.672 66.7111 312.627 66.4005 310.869 65.6883C309.127 64.9762 307.771 63.8702 306.801 62.3702C305.831 60.8702 305.354 58.9762 305.369 56.6883V22.8702ZM337.881 66.802C335.653 66.802 333.669 66.4156 331.926 65.6429C330.184 64.855 328.805 63.6959 327.79 62.1656C326.79 60.6202 326.29 58.6959 326.29 56.3929C326.29 54.4535 326.646 52.8247 327.358 51.5065C328.07 50.1883 329.04 49.1277 330.267 48.3247C331.494 47.5217 332.888 46.9156 334.449 46.5065C336.025 46.0974 337.676 45.8095 339.403 45.6429C341.434 45.4308 343.07 45.2338 344.312 45.052C345.555 44.855 346.456 44.5671 347.017 44.1883C347.578 43.8095 347.858 43.2489 347.858 42.5065V42.3702C347.858 40.9308 347.403 39.8171 346.494 39.0292C345.6 38.2414 344.328 37.8474 342.676 37.8474C340.934 37.8474 339.547 38.2338 338.517 39.0065C337.487 39.7641 336.805 40.7186 336.472 41.8702L327.517 41.1429C327.972 39.0217 328.866 37.1883 330.199 35.6429C331.532 34.0823 333.252 32.8853 335.358 32.052C337.479 31.2035 339.934 30.7792 342.722 30.7792C344.661 30.7792 346.517 31.0065 348.29 31.4611C350.078 31.9156 351.661 32.6202 353.04 33.5747C354.434 34.5292 355.532 35.7565 356.335 37.2565C357.138 38.7414 357.54 40.5217 357.54 42.5974V66.1429H348.358V61.302H348.085C347.525 62.3929 346.775 63.355 345.835 64.1883C344.896 65.0065 343.767 65.6505 342.449 66.1202C341.131 66.5747 339.608 66.802 337.881 66.802ZM340.653 60.1202C342.078 60.1202 343.335 59.8399 344.426 59.2792C345.517 58.7035 346.373 57.9308 346.994 56.9611C347.616 55.9914 347.926 54.8929 347.926 53.6656V49.9611C347.623 50.158 347.206 50.3399 346.676 50.5065C346.161 50.658 345.578 50.802 344.926 50.9383C344.275 51.0595 343.623 51.1732 342.972 51.2792C342.32 51.3702 341.729 51.4535 341.199 51.5292C340.063 51.6959 339.07 51.9611 338.222 52.3247C337.373 52.6883 336.714 53.1808 336.244 53.802C335.775 54.408 335.54 55.1656 335.54 56.0747C335.54 57.3929 336.017 58.4005 336.972 59.0974C337.941 59.7792 339.169 60.1202 340.653 60.1202ZM380.824 66.8247C377.248 66.8247 374.172 66.0671 371.597 64.552C369.036 63.0217 367.066 60.9005 365.688 58.1883C364.324 55.4762 363.642 52.355 363.642 48.8247C363.642 45.2489 364.331 42.1126 365.71 39.4156C367.104 36.7035 369.081 34.5899 371.642 33.0747C374.203 31.5444 377.248 30.7792 380.778 30.7792C383.824 30.7792 386.491 31.3323 388.778 32.4383C391.066 33.5444 392.877 35.0974 394.21 37.0974C395.544 39.0974 396.278 41.4459 396.415 44.1429H387.278C387.021 42.4005 386.339 40.9989 385.233 39.9383C384.142 38.8626 382.71 38.3247 380.938 38.3247C379.438 38.3247 378.127 38.7338 377.006 39.552C375.9 40.355 375.036 41.5292 374.415 43.0747C373.794 44.6202 373.483 46.4914 373.483 48.6883C373.483 50.9156 373.786 52.8095 374.392 54.3702C375.013 55.9308 375.884 57.1202 377.006 57.9383C378.127 58.7565 379.438 59.1656 380.938 59.1656C382.044 59.1656 383.036 58.9383 383.915 58.4838C384.809 58.0292 385.544 57.3702 386.119 56.5065C386.71 55.6277 387.097 54.5747 387.278 53.3474H396.415C396.263 56.0141 395.536 58.3626 394.233 60.3929C392.945 62.408 391.165 63.9838 388.892 65.1202C386.619 66.2565 383.93 66.8247 380.824 66.8247ZM421.182 31.2338V38.5065H400.159V31.2338H421.182ZM404.932 22.8702H414.614V55.4156C414.614 56.3095 414.75 57.0065 415.023 57.5065C415.295 57.9914 415.674 58.3323 416.159 58.5292C416.659 58.7262 417.235 58.8247 417.886 58.8247C418.341 58.8247 418.795 58.7868 419.25 58.7111C419.705 58.6202 420.053 58.552 420.295 58.5065L421.818 65.7111C421.333 65.8626 420.652 66.0368 419.773 66.2338C418.894 66.4459 417.826 66.5747 416.568 66.6202C414.235 66.7111 412.189 66.4005 410.432 65.6883C408.689 64.9762 407.333 63.8702 406.364 62.3702C405.394 60.8702 404.917 58.9762 404.932 56.6883V22.8702ZM201.295 109.984C201.114 108.15 200.333 106.726 198.955 105.711C197.576 104.696 195.705 104.188 193.341 104.188C191.735 104.188 190.379 104.416 189.273 104.87C188.167 105.31 187.318 105.923 186.727 106.711C186.152 107.499 185.864 108.393 185.864 109.393C185.833 110.226 186.008 110.953 186.386 111.575C186.78 112.196 187.318 112.734 188 113.188C188.682 113.628 189.47 114.014 190.364 114.347C191.258 114.666 192.212 114.938 193.227 115.166L197.409 116.166C199.439 116.62 201.303 117.226 203 117.984C204.697 118.741 206.167 119.673 207.409 120.779C208.652 121.885 209.614 123.188 210.295 124.688C210.992 126.188 211.348 127.908 211.364 129.847C211.348 132.696 210.621 135.166 209.182 137.257C207.758 139.332 205.697 140.946 203 142.097C200.318 143.234 197.083 143.802 193.295 143.802C189.538 143.802 186.265 143.226 183.477 142.075C180.705 140.923 178.538 139.219 176.977 136.961C175.432 134.688 174.621 131.878 174.545 128.529H184.068C184.174 130.09 184.621 131.393 185.409 132.438C186.212 133.469 187.28 134.249 188.614 134.779C189.962 135.294 191.485 135.552 193.182 135.552C194.848 135.552 196.295 135.31 197.523 134.825C198.765 134.34 199.727 133.666 200.409 132.802C201.091 131.938 201.432 130.946 201.432 129.825C201.432 128.779 201.121 127.9 200.5 127.188C199.894 126.476 199 125.87 197.818 125.37C196.652 124.87 195.22 124.416 193.523 124.007L188.455 122.734C184.53 121.779 181.432 120.287 179.159 118.257C176.886 116.226 175.758 113.491 175.773 110.052C175.758 107.234 176.508 104.772 178.023 102.666C179.553 100.56 181.652 98.9156 184.318 97.7338C186.985 96.552 190.015 95.9611 193.409 95.9611C196.864 95.9611 199.879 96.552 202.455 97.7338C205.045 98.9156 207.061 100.56 208.5 102.666C209.939 104.772 210.682 107.211 210.727 109.984H201.295ZM217.801 143.143V108.234H227.483V143.143H217.801ZM222.665 103.734C221.225 103.734 219.991 103.257 218.96 102.302C217.945 101.332 217.438 100.173 217.438 98.8247C217.438 97.4914 217.945 96.3474 218.96 95.3929C219.991 94.4232 221.225 93.9383 222.665 93.9383C224.104 93.9383 225.331 94.4232 226.347 95.3929C227.377 96.3474 227.892 97.4914 227.892 98.8247C227.892 100.173 227.377 101.332 226.347 102.302C225.331 103.257 224.104 103.734 222.665 103.734ZM235.239 143.143V108.234H244.466V114.393H244.875C245.602 112.347 246.814 110.734 248.511 109.552C250.208 108.37 252.239 107.779 254.602 107.779C256.996 107.779 259.034 108.378 260.716 109.575C262.398 110.757 263.519 112.363 264.08 114.393H264.443C265.155 112.393 266.443 110.794 268.307 109.597C270.186 108.385 272.405 107.779 274.966 107.779C278.223 107.779 280.867 108.817 282.898 110.893C284.943 112.953 285.966 115.878 285.966 119.666V143.143H276.307V121.575C276.307 119.635 275.792 118.181 274.761 117.211C273.731 116.241 272.443 115.757 270.898 115.757C269.14 115.757 267.769 116.317 266.784 117.438C265.799 118.544 265.307 120.007 265.307 121.825V143.143H255.92V121.37C255.92 119.658 255.428 118.294 254.443 117.279C253.473 116.264 252.193 115.757 250.602 115.757C249.527 115.757 248.557 116.029 247.693 116.575C246.845 117.105 246.17 117.855 245.67 118.825C245.17 119.779 244.92 120.9 244.92 122.188V143.143H235.239ZM293.614 156.234V108.234H303.159V114.097H303.591C304.015 113.158 304.629 112.203 305.432 111.234C306.25 110.249 307.311 109.431 308.614 108.779C309.932 108.113 311.568 107.779 313.523 107.779C316.068 107.779 318.417 108.446 320.568 109.779C322.72 111.097 324.439 113.09 325.727 115.757C327.015 118.408 327.659 121.734 327.659 125.734C327.659 129.628 327.03 132.916 325.773 135.597C324.53 138.264 322.833 140.287 320.682 141.666C318.545 143.029 316.152 143.711 313.5 143.711C311.621 143.711 310.023 143.4 308.705 142.779C307.402 142.158 306.333 141.378 305.5 140.438C304.667 139.484 304.03 138.522 303.591 137.552H303.295V156.234H293.614ZM303.091 125.688C303.091 127.764 303.379 129.575 303.955 131.12C304.53 132.666 305.364 133.87 306.455 134.734C307.545 135.582 308.871 136.007 310.432 136.007C312.008 136.007 313.341 135.575 314.432 134.711C315.523 133.832 316.348 132.62 316.909 131.075C317.485 129.514 317.773 127.719 317.773 125.688C317.773 123.673 317.492 121.9 316.932 120.37C316.371 118.84 315.545 117.643 314.455 116.779C313.364 115.916 312.023 115.484 310.432 115.484C308.856 115.484 307.523 115.9 306.432 116.734C305.356 117.567 304.53 118.749 303.955 120.279C303.379 121.81 303.091 123.613 303.091 125.688ZM343.795 96.5974V143.143H334.114V96.5974H343.795ZM351.551 143.143V108.234H361.233V143.143H351.551ZM356.415 103.734C354.975 103.734 353.741 103.257 352.71 102.302C351.695 101.332 351.188 100.173 351.188 98.8247C351.188 97.4914 351.695 96.3474 352.71 95.3929C353.741 94.4232 354.975 93.9383 356.415 93.9383C357.854 93.9383 359.081 94.4232 360.097 95.3929C361.127 96.3474 361.642 97.4914 361.642 98.8247C361.642 100.173 361.127 101.332 360.097 102.302C359.081 103.257 357.854 103.734 356.415 103.734ZM387.761 108.234V115.507H366.216V108.234H387.761ZM371.148 143.143V105.711C371.148 103.181 371.64 101.082 372.625 99.4156C373.625 97.7489 374.989 96.4989 376.716 95.6656C378.443 94.8323 380.405 94.4156 382.602 94.4156C384.087 94.4156 385.443 94.5292 386.67 94.7565C387.913 94.9838 388.837 95.1883 389.443 95.3702L387.716 102.643C387.337 102.522 386.867 102.408 386.307 102.302C385.761 102.196 385.201 102.143 384.625 102.143C383.201 102.143 382.208 102.476 381.648 103.143C381.087 103.794 380.807 104.711 380.807 105.893V143.143H371.148ZM393.676 143.143V108.234H403.358V143.143H393.676ZM398.54 103.734C397.1 103.734 395.866 103.257 394.835 102.302C393.82 101.332 393.312 100.173 393.312 98.8247C393.312 97.4914 393.82 96.3474 394.835 95.3929C395.866 94.4232 397.1 93.9383 398.54 93.9383C399.979 93.9383 401.206 94.4232 402.222 95.3929C403.252 96.3474 403.767 97.4914 403.767 98.8247C403.767 100.173 403.252 101.332 402.222 102.302C401.206 103.257 399.979 103.734 398.54 103.734ZM427.023 143.825C423.432 143.825 420.341 143.097 417.75 141.643C415.174 140.173 413.189 138.097 411.795 135.416C410.402 132.719 409.705 129.529 409.705 125.847C409.705 122.257 410.402 119.105 411.795 116.393C413.189 113.681 415.152 111.567 417.682 110.052C420.227 108.537 423.212 107.779 426.636 107.779C428.939 107.779 431.083 108.15 433.068 108.893C435.068 109.62 436.811 110.719 438.295 112.188C439.795 113.658 440.962 115.507 441.795 117.734C442.629 119.946 443.045 122.537 443.045 125.507V128.166H413.568V122.166H433.932C433.932 120.772 433.629 119.537 433.023 118.461C432.417 117.385 431.576 116.544 430.5 115.938C429.439 115.317 428.205 115.007 426.795 115.007C425.326 115.007 424.023 115.347 422.886 116.029C421.765 116.696 420.886 117.597 420.25 118.734C419.614 119.855 419.288 121.105 419.273 122.484V128.188C419.273 129.916 419.591 131.408 420.227 132.666C420.879 133.923 421.795 134.893 422.977 135.575C424.159 136.257 425.561 136.597 427.182 136.597C428.258 136.597 429.242 136.446 430.136 136.143C431.03 135.84 431.795 135.385 432.432 134.779C433.068 134.173 433.553 133.431 433.886 132.552L442.841 133.143C442.386 135.294 441.455 137.173 440.045 138.779C438.652 140.37 436.848 141.613 434.636 142.507C432.439 143.385 429.902 143.825 427.023 143.825ZM449.364 143.143V108.234H458.75V114.325H459.114C459.75 112.158 460.818 110.522 462.318 109.416C463.818 108.294 465.545 107.734 467.5 107.734C467.985 107.734 468.508 107.764 469.068 107.825C469.629 107.885 470.121 107.969 470.545 108.075V116.666C470.091 116.529 469.462 116.408 468.659 116.302C467.856 116.196 467.121 116.143 466.455 116.143C465.03 116.143 463.758 116.453 462.636 117.075C461.53 117.681 460.652 118.529 460 119.62C459.364 120.711 459.045 121.969 459.045 123.393V143.143H449.364Z" fill="white"/>
</g>
<defs>
<clipPath id="clip0_9_151">
<rect width="472" height="162.286" fill="white"/>
</clipPath>
</defs>
</svg>
